<?xml version="1.0" encoding="utf-8"?>
<!-- Generator: Adobe Illustrator 16.0.0, SVG Export Plug-In . SVG Version: 6.00 Build 0)  -->
<!DOCTYPE svg PUBLIC "-//W3C//DTD SVG 1.1//EN" "http://www.w3.org/Graphics/SVG/1.1/DTD/svg11.dtd">
<svg version="1.1" id="Capa_1" xmlns="http://www.w3.org/2000/svg" xmlns:xlink="http://www.w3.org/1999/xlink" x="0px" y="0px"
	 width="512px" height="512px" viewBox="0 0 512 512" enable-background="new 0 0 512 512" xml:space="preserve">
<rect x="105.477" y="260.608" transform="matrix(0.7123 0.7018 -0.7018 0.7123 310.5975 32.8793)" width="19.427" height="269.442"/>
<path d="M58.831,474.248L219.22,313.857c30.933,26.195,70.861,42.078,114.477,42.078c97.861,0,177.468-79.605,177.468-177.468
	C511.165,80.606,431.558,1,333.698,1S156.23,80.606,156.23,178.467c0,43.617,15.883,83.546,42.078,114.478L37.919,453.334
	L58.831,474.248z M185.808,178.467c0-81.542,66.348-147.889,147.889-147.889c81.542,0,147.89,66.348,147.89,147.889
	c0,81.542-66.348,147.89-147.89,147.89C252.156,326.357,185.808,260.01,185.808,178.467z"/>
<circle fill="#FFFFFF" cx="333.869" cy="178.296" r="165.323"/>
<rect x="110.486" y="272.647" transform="matrix(0.7059 0.7084 -0.7084 0.7059 326.804 35.1194)" fill="#FFFFFF" width="21.258" height="276.83"/>
<rect x="88.146" y="249.769" transform="matrix(0.7059 0.7084 -0.7084 0.7059 303.1077 43.8328)" fill="#FFFFFF" width="21.258" height="274.234"/>
</svg>
